PathFileType	4	(X/Y/Z)	s10c0101.trc
DataRate	CameraRate	NumFrames	NumMarkers	Units	OrigDataRate	OrigDataStartFrame	OrigNumFrames
200	200	4	49	mm	200	1000	2000
Frame#	Time	racr			lacr			c7			jug			rlel			rdr			llel			ldr			s2			lic			ric			lasi			rasi			rpsi			lpsi			rgt			lgt			rth1			rth2			rth3			rth4			rlfc			rmfc			rsh1			rsh2			rsh3			rsh4			rlmal			rmmal			rcal			rtoe			rmt5			lth1			lth2			lth4			lth3			llfc			lmfc			llmal			lcal			lmt5			lsh1			lsh2			lsh3			lsh4			ltoe			SBIKE			LBIKE			RBIKE			
		X1	Y1	Z1	X2	Y2	Z2	X3	Y3	Z3	X4	Y4	Z4	X5	Y5	Z5	X6	Y6	Z6	X7	Y7	Z7	X8	Y8	Z8	X9	Y9	Z9	X10	Y10	Z10	X11	Y11	Z11	X12	Y12	Z12	X13	Y13	Z13	X14	Y14	Z14	X15	Y15	Z15	X16	Y16	Z16	X17	Y17	Z17	X18	Y18	Z18	X19	Y19	Z19	X20	Y20	Z20	X21	Y21	Z21	X22	Y22	Z22	X23	Y23	Z23	X24	Y24	Z24	X25	Y25	Z25	X26	Y26	Z26	X27	Y27	Z27	X28	Y28	Z28	X29	Y29	Z29	X30	Y30	Z30	X31	Y31	Z31	X32	Y32	Z32	X33	Y33	Z33	X34	Y34	Z34	X35	Y35	Z35	X36	Y36	Z36	X37	Y37	Z37	X38	Y38	Z38	X39	Y39	Z39	X40	Y40	Z40	X41	Y41	Z41	X42	Y42	Z42	X43	Y43	Z43	X44	Y44	Z44	X45	Y45	Z45	X46	Y46	Z46	X47	Y47	Z47	X48	Y48	Z48	X49	Y49	Z49	
1000	5.0000	465.719987	1251.078248	-92.937960	379.316708	1266.025072	-416.285242	383.441567	1323.754250	-240.117785	382.202943	1180.836268	-244.484775	477.155912	1009.017624	38.098969	638.763959	879.767217	-49.209252	433.171403	992.313159	-477.203026	629.758879	884.300991	-411.408967	-109.260226	1090.936225	-176.128118	32.827016	1129.375325	-345.790056	80.919632	1098.741988	-43.732716	74.071437	1043.235105	-312.676658	76.661386	1018.578760	-65.693201	-65.794676	1142.036717	-114.800555	-73.985030	1157.519340	-225.203870	-31.518109	976.442944	-9.061951	-27.471395	1010.034449	-388.515046	40.535100	848.221145	7.829764	102.022207	785.991753	-9.768365	121.625648	703.561945	-23.956902	134.275395	806.333422	-15.934209	179.765161	617.128124	-45.905181	167.819187	605.616226	-159.414803	139.453935	509.254369	-17.729509	158.330247	423.361083	-31.750248	132.851515	340.941688	-37.341053	188.780561	425.722545	-55.711525	123.849029	237.753890	-53.488875	146.967905	255.822181	-132.861047	72.866828	221.453486	-101.925695	314.061698	190.771706	-102.461436	231.443289	165.381790	-39.710020	93.850135	959.587847	-402.286320	179.238577	962.967196	-385.590730	184.866769	993.508653	-364.993176	258.861350	922.109116	-385.386255	360.779695	870.621835	-363.004432	349.526968	841.635631	-239.786635	78.500847	614.053340	-380.259790	21.324028	624.514521	-335.431866	101.239632	466.774415	-399.129886	271.139086	790.835048	-401.202877	228.612218	715.588849	-387.768975	151.535701	670.406832	-390.233780	248.838829	698.626332	-360.769575	177.611190	423.848147	-345.005280	-217.913686	834.213370	-212.696255	-104.005089	80.623580	-418.189781	-103.863046	80.207298	-18.216514	
1001	5.0050	466.080003	1252.068233	-95.781360	377.434994	1267.130688	-418.358334	383.117297	1324.358811	-241.696256	381.741147	1182.002758	-246.170470	479.135114	1011.086425	36.442418	639.120733	879.851073	-49.051036	432.263118	992.544885	-477.431332	629.725035	885.243068	-411.529287	-108.491320	1092.875348	-174.555279	31.843711	1132.293525	-345.114020	82.551479	1099.947948	-43.043361	73.888763	1046.065447	-311.789590	78.449290	1020.218310	-65.685435	-64.641385	1143.379042	-111.985614	-73.655734	1159.584698	-222.665608	-30.345039	977.547338	-8.233493	-26.866443	1015.445567	-387.779569	38.779185	848.507725	8.876915	99.279130	785.095093	-8.665199	117.233342	702.388760	-22.565391	130.743417	804.892717	-15.564164	173.384680	614.803916	-44.940847	161.040088	603.659111	-158.962041	132.090100	507.230022	-17.037082	150.179630	421.139370	-31.090875	123.838390	339.073992	-36.957367	181.042237	423.145883	-54.311018	116.144173	235.686716	-53.235376	139.789781	253.396299	-132.328570	65.173179	220.290378	-101.947735	305.702902	184.508896	-102.199092	222.377780	161.175869	-39.605917	95.241628	966.109570	-402.548228	180.315166	970.726011	-384.921773	184.954790	1000.506246	-362.480333	260.552151	931.097570	-384.128897	364.797802	881.296899	-359.737484	353.613299	852.829411	-236.787008	86.957668	619.092515	-379.222235	29.828134	628.940713	-335.357337	111.247314	471.914462	-398.778839	277.483911	800.600215	-398.711478	236.337437	724.452559	-386.027375	160.180562	677.891427	-389.180940	256.659253	707.780286	-358.920945	187.623389	429.219955	-344.911280	-217.813844	834.240697	-212.721829	-103.992479	80.669998	-418.187208	-103.864954	80.233031	-18.189161	
1002	5.0100	466.230131	1253.003643	-98.548020	376.141382	1268.044180	-420.186347	382.798350	1324.836910	-243.193812	381.496972	1182.910540	-247.189147	480.901098	1012.947959	34.388722	639.431458	879.714897	-49.033165	431.221757	992.652665	-477.793997	629.709599	886.123192	-411.590403	-109.826670	1095.617514	-173.081630	30.990161	1134.976573	-344.172261	84.288722	1101.202234	-42.838937	73.409808	1048.459216	-310.318415	79.795600	1022.027924	-66.011235	-62.953105	1144.675362	-109.966361	-73.303091	1161.917064	-220.114561	-28.944204	978.846323	-7.701823	-26.361222	1020.581213	-387.290891	36.910338	849.087516	9.743252	96.280507	784.473213	-7.722273	112.934283	701.600156	-21.474450	128.167803	803.853419	-14.600784	167.431800	612.911064	-44.070030	154.693637	602.388486	-158.540297	124.976818	505.675822	-16.397030	142.158107	419.337925	-30.407877	114.900366	337.569053	-36.735812	173.405273	421.066579	-53.106644	108.176733	234.313151	-53.109991	132.387151	251.803586	-132.003818	57.188047	219.927016	-102.064279	296.946322	179.056520	-102.038373	213.046674	157.612608	-39.455228	96.269949	972.296058	-402.239887	181.077637	977.524917	-383.055321	184.878604	1007.304345	-360.117966	261.825760	939.779391	-382.929138	367.926100	892.164214	-357.514424	357.362603	864.016892	-233.911428	96.314040	624.458222	-378.947185	38.470631	632.576366	-334.205874	121.421765	476.614123	-398.403934	283.529244	810.238291	-396.465387	243.849484	733.115801	-384.415245	168.479213	685.118464	-388.104825	264.847228	717.876525	-358.665114	197.907649	434.426865	-344.850845	-217.826519	834.284816	-212.664748	-103.967385	80.711911	-418.192968	-103.829305	80.242226	-18.151225	
1003	5.0150	466.243070	1253.916865	-101.145176	375.489811	1268.612605	-421.765725	382.545466	1325.258258	-244.647340	381.272435	1183.855133	-248.385752	482.330850	1014.604885	32.008619	639.649604	879.460880	-49.329876	430.319255	992.743063	-478.052801	629.766253	887.551758	-412.218128	-108.670493	1097.541027	-172.144001	30.514918	1137.517139	-343.759311	85.945320	1102.351595	-42.896110	72.836934	1050.676372	-308.599905	80.832174	1023.769347	-66.301972	-61.663155	1146.389392	-107.111274	-73.063573	1163.620565	-219.110443	-28.485190	980.397081	-6.688712	-25.936803	1025.537655	-387.143809	35.154762	849.780755	10.524449	93.399182	784.038865	-6.869173	109.020715	701.177335	-20.403727	125.809580	803.172428	-13.447194	162.019914	611.374909	-43.196893	148.256341	602.010583	-158.191391	118.147380	504.478923	-15.916553	134.333460	417.861954	-29.913721	106.070313	336.577512	-36.583876	165.980207	419.398035	-52.124708	99.909203	233.238584	-53.044058	125.535166	251.337422	-132.011196	48.918339	220.173979	-102.164638	287.958387	174.244274	-101.780100	203.492649	154.693283	-39.419744	97.022705	978.277557	-401.861999	181.352190	983.939684	-380.322798	184.439747	1013.653328	-357.661695	262.781252	948.122755	-381.694702	370.521843	902.825594	-355.592315	360.757371	875.075929	-231.084355	104.846744	628.895649	-378.110805	45.632101	635.246277	-334.229427	131.613588	480.702281	-398.096073	288.789844	819.447212	-394.204631	250.554428	741.380194	-382.757885	176.399488	692.088812	-386.840507	271.555634	726.262352	-356.616092	208.298755	439.107797	-344.513074	-217.834291	834.328310	-212.612489	-103.909109	80.831106	-418.167819	-103.901215	80.390212	-18.069043	
